<svg xmlns="http://www.w3.org/2000/svg" xmlns:xlink="http://www.w3.org/1999/xlink" viewBox="0 0 661.6928 85.5927"><defs><style>.cls-1{fill:none;}.cls-2{isolation:isolate;}.cls-3{fill:#005287;}.cls-4{fill:#11b5e9;}.cls-5{mix-blend-mode:multiply;}.cls-6{clip-path:url(#clip-path);}.cls-7{clip-path:url(#clip-path-2);}.cls-8{fill:url(#linear-gradient);}.cls-9{clip-path:url(#clip-path-3);}.cls-10{fill:url(#linear-gradient-2);}</style><clipPath id="clip-path"><rect class="cls-1" x="0.8594" y="2.5476" width="130.891" height="81.6619"/></clipPath><clipPath id="clip-path-2"><path class="cls-1" d="M45.3419,66.9441l21.833-16.2727C30.2857,56.5,6.7248,68.345.858,71.5415c2.2486-.0325,34.6733-.3933,58.7643,12.6694L77,64.5383a182.1649,182.1649,0,0,0-31.6585,2.4058M131.75,2.5476,57.1256,41.8468H79.0115Z"/></clipPath><linearGradient id="linear-gradient" x1="-70.9686" y1="350.2983" x2="-69.6124" y2="350.2983" gradientTransform="matrix(83.9602, 0, 0, -83.9602, 5973.5825, 29454.4857)" gradientUnits="userSpaceOnUse"><stop offset="0" stop-color="#fff"/><stop offset="0.0649" stop-color="#eff4f8"/><stop offset="0.404" stop-color="#a1bed4"/><stop offset="0.6836" stop-color="#6897ba"/><stop offset="0.8897" stop-color="#447eaa"/><stop offset="1" stop-color="#3775a4"/></linearGradient><clipPath id="clip-path-3"><path class="cls-1" d="M91.6443,47.96,77,64.5383a103.3784,103.3784,0,0,1,21.1915,2.3285l10.1672-19.4855q-8.65.0448-16.7148.5791m5.3962-6.1136h14.2046L131.75,2.5476Z"/></clipPath><linearGradient id="linear-gradient-2" x1="-71.0486" y1="352.1551" x2="-69.6924" y2="352.1551" gradientTransform="matrix(70.3802, 0.0001, 0.0001, -70.3802, 5048.9853, 24819.4697)" gradientUnits="userSpaceOnUse"><stop offset="0" stop-color="#6e727a"/><stop offset="0.1589" stop-color="#888b92"/><stop offset="0.496" stop-color="#c9cacd"/><stop offset="0.6044" stop-color="#dfe0e2"/><stop offset="0.7839" stop-color="#999ca1"/><stop offset="0.9288" stop-color="#676b73"/><stop offset="1" stop-color="#545861"/></linearGradient></defs><title>Artboard 2</title><g class="cls-2"><g id="Layer_1" data-name="Layer 1"><path class="cls-3" d="M185.8425,69.9765l-4.7959-12.1524H154.0554l-4.7969,12.1524h-7.7236L163.323,15.2109h8.374l21.8691,54.7656Zm-18.292-47.7041L156.0066,51.7489h23.0078Z"/><path class="cls-3" d="M232.8347,69.9765l-13.82-21.7588H208.2009V69.9765h-6.7471V15.2109H223.241c9.9189,0,16.9921,6.4043,16.9921,16.5039,0,9.8525-6.667,15.2714-14.0644,15.9287l14.6328,22.333Zm.4063-38.2617c0-6.1582-4.39-10.4278-10.8125-10.4278H208.2009V42.2245h14.2276C228.8513,42.2245,233.241,37.872,233.241,31.7148Z"/><path class="cls-3" d="M249.5007,42.6347c0-16.9961,12.4385-28.3272,27.8848-28.3272,9.5937,0,16.26,4.27,21.0566,10.2637l-5.3652,3.3662a19.9271,19.9271,0,0,0-15.6914-7.5537c-11.8692,0-20.8936,9.1963-20.8936,22.251,0,12.9726,9.0244,22.333,20.8936,22.333a21.2913,21.2913,0,0,0,14.5527-5.9111V47.89H273.321V41.8134h25.3653V61.6015a28.1235,28.1235,0,0,1-21.3008,9.4424C261.9392,71.0439,249.5007,59.6308,249.5007,42.6347Z"/><path class="cls-3" d="M308.2,42.6347c0-16.1748,10.8125-28.3272,26.91-28.3272,16.0156,0,26.9092,12.1524,26.9092,28.3272S351.1257,70.9618,335.11,70.9618C319.0124,70.9618,308.2,58.81,308.2,42.6347Zm46.8282,0c0-12.8086-7.8047-22.251-19.918-22.251-12.1953,0-19.919,9.4424-19.919,22.251,0,12.7265,7.7237,22.251,19.919,22.251C347.2234,64.8857,355.0281,55.3612,355.0281,42.6347Z"/><path class="cls-3" d="M391.37,42.6347c0-16.9961,12.4384-28.3272,27.8847-28.3272,9.5938,0,16.26,4.27,21.0567,10.2637l-5.3653,3.3662a19.9271,19.9271,0,0,0-15.6914-7.5537c-11.8691,0-20.8935,9.1963-20.8935,22.251,0,12.9726,9.0244,22.333,20.8935,22.333a21.2918,21.2918,0,0,0,14.5528-5.9111V47.89H415.19V41.8134h25.3652V61.6015a28.1235,28.1235,0,0,1-21.3008,9.4424C403.8083,71.0439,391.37,59.6308,391.37,42.6347Z"/><path class="cls-3" d="M482.9138,69.9765,469.0925,48.2177H458.28V69.9765h-6.748V15.2109h21.789c9.918,0,16.9912,6.4043,16.9912,16.5039,0,9.8525-6.6669,15.2714-14.0654,15.9287l14.6348,22.333Zm.4063-38.2617c0-6.1582-4.39-10.4278-10.8125-10.4278H458.28V42.2245h14.2276C478.93,42.2245,483.32,37.872,483.32,31.7148Z"/><path class="cls-3" d="M498.7673,42.6347c0-16.1748,10.8125-28.3272,26.9092-28.3272,16.0166,0,26.91,12.1524,26.91,28.3272s-10.8936,28.3271-26.91,28.3271C509.58,70.9618,498.7673,58.81,498.7673,42.6347Zm46.8281,0c0-12.8086-7.8046-22.251-19.9189-22.251-12.1943,0-19.918,9.4424-19.918,22.251,0,12.7265,7.7237,22.251,19.918,22.251C537.7908,64.8857,545.5954,55.3612,545.5954,42.6347Z"/><path class="cls-3" d="M563.157,48.7109v-33.5h6.748V48.5468c0,10.0166,5.3662,16.3389,15.3653,16.3389s15.3662-6.3223,15.3662-16.3389V15.2109h6.747V48.6288c0,13.63-7.3974,22.333-22.1132,22.333S563.157,62.1767,563.157,48.7109Z"/><path class="cls-3" d="M620.0671,69.9765V15.2109h21.7891c10.8935,0,16.9912,7.5537,16.9912,16.5039s-6.2607,16.5029-16.9912,16.5029h-15.041V69.9765Zm31.7881-38.2617c0-6.1582-4.39-10.4278-10.8125-10.4278H626.8152V42.1425h14.2275C647.4656,42.1425,651.8552,37.872,651.8552,31.7148Z"/><path class="cls-4" d="M45.3418,66.9438l21.833-16.2727C30.2856,56.5013,6.7248,68.3461.858,71.5426c2.2485-.0339,34.6732-.3946,58.7643,12.668L77,64.538a182.1765,182.1765,0,0,0-31.6585,2.4058M131.75,2.5473,57.1256,41.8465H79.0115Z"/><g class="cls-5"><g class="cls-6"><g class="cls-7"><rect class="cls-8" x="-9.738" y="-30.6187" width="152.0844" height="147.996" transform="translate(-12.0718 55.0073) rotate(-41.6335)"/></g></g></g><path class="cls-3" d="M45.3422,66.9438A182.1765,182.1765,0,0,1,77.0007,64.538L91.6433,47.96c-8.6958.5587-16.8653,1.5121-24.4694,2.7109Zm33.67-25.0973H97.0408l34.71-39.2992Z"/><g class="cls-9"><rect class="cls-10" x="62.325" y="-6.1767" width="84.1006" height="81.7679" transform="translate(15.9934 100.1857) rotate(-54.9263)"/></g></g></g></svg>